<svg width="32" height="32" viewBox="0 0 32 32" fill="none" xmlns="http://www.w3.org/2000/svg">
    <path d="M13.1158 20.0637C12.1557 20.3321 11.4298 21.0088 11.071 21.4624C10.9193 21.6569 10.8518 21.9763 10.7341 22.1946C10.6821 22.2899 9.98345 23.64 9.35484 24.0435C8.66059 24.4845 8.03392 24.5802 7.69798 25.273C7.56282 25.5497 7.50643 25.854 7.54921 26.1452C7.61193 26.5905 7.90363 27.0101 8.50113 27.2702C9.49486 27.7039 13.057 27.3067 15.043 24.8535C15.6181 24.2579 15.8729 23.4105 15.9764 22.6336C16.1913 21.0122 14.693 19.6242 13.1158 20.0637Z" fill="#32ABF2"/>
    <path d="M10.7629 20.0955C10.7921 20.0518 10.8213 20.0099 10.8514 19.9565C10.8976 19.8758 10.9452 19.7844 10.9958 19.6866C10.2714 19.2258 9.22858 18.4046 9.18288 18.3686L9.10947 18.3118L9.11238 18.3079C9.04432 18.2529 8.97626 18.2019 8.90771 18.1426C8.75505 18.1795 8.60823 18.2228 8.47064 18.2743C7.60769 18.5971 7.02721 19.1771 6.61542 19.62C6.47784 19.7678 6.3597 19.8996 6.25177 20.0046C5.66059 20.5754 5.01204 20.8996 4.73249 21.0236C4.67561 21.0596 4.61776 21.0956 4.55893 21.1315C3.52777 21.7616 3.58222 22.7636 3.6955 23.1487C3.80877 23.5337 4.24243 24.5697 5.69802 24.544C6.82545 24.524 8.05254 23.9246 8.54891 23.6552C8.54891 23.6552 10.6492 22.3076 11.4309 20.6911C11.4324 20.6906 11.1655 20.4592 10.7629 20.0955Z" fill="#32ABF2"/>
    <path d="M7.5985 16.5258C7.33208 16.1655 7.09677 15.814 6.9271 15.5471C6.85904 15.4392 6.80167 15.3464 6.75646 15.2705C6.55664 15.323 6.30772 15.4076 6.03547 15.5467C5.38109 15.8811 4.71212 16.0639 4.31443 15.9103C3.91724 15.7562 3.0431 15.3643 2.42227 15.8082C1.80143 16.2521 1.60064 17.065 1.94388 17.6659C2.23898 18.1827 3.00372 18.9975 3.86765 19.329C3.86765 19.329 5.8517 20.2785 8.13329 18.2998C10.0989 16.5958 8.46534 16.5068 7.5985 16.5258Z" fill="#32ABF2"/>
    <path d="M15.9843 23.1288C21.2676 23.1288 25.5506 18.8458 25.5506 13.5624C25.5506 8.27909 21.2676 3.99609 15.9843 3.99609C10.701 3.99609 6.41797 8.27909 6.41797 13.5624C6.41797 18.8458 10.701 23.1288 15.9843 23.1288Z" fill="#32ABF2"/>
    <path d="M18.8577 20.0637C19.8179 20.3321 20.5438 21.0088 20.9025 21.4624C21.0542 21.6569 21.1218 21.9763 21.2395 22.1946C21.2915 22.2899 21.9901 23.64 22.6187 24.0435C23.3125 24.4845 23.9396 24.5802 24.2756 25.273C24.4107 25.5497 24.4671 25.854 24.4243 26.1452C24.3616 26.5905 24.0699 27.0101 23.4724 27.2702C22.4787 27.7039 18.9166 27.3067 16.9306 24.8535C16.3554 24.2579 16.1007 23.4105 15.9971 22.6336C15.7827 21.0122 17.2811 19.6242 18.8577 20.0637Z" fill="#32ABF2"/>
    <path d="M21.21 20.0955C21.1808 20.0518 21.1516 20.0099 21.1215 19.9565C21.0753 19.8758 21.0277 19.7844 20.9771 19.6866C21.7015 19.2258 22.7443 18.4046 22.79 18.3686L22.8634 18.3118L22.8605 18.3079C22.9286 18.2529 22.9966 18.2019 23.0647 18.1426C23.2174 18.1795 23.3642 18.2228 23.5018 18.2743C24.3647 18.5971 24.9452 19.1771 25.357 19.62C25.4946 19.7678 25.6127 19.8996 25.7206 20.0046C26.3118 20.5754 26.9604 20.8996 27.2399 21.0236C27.2968 21.0596 27.3547 21.0956 27.4135 21.1315C28.4447 21.7616 28.3902 22.7636 28.2769 23.1487C28.1636 23.5337 27.73 24.5697 26.2744 24.544C25.1475 24.524 23.9199 23.9246 23.4235 23.6552C23.4235 23.6552 21.3228 22.3076 20.541 20.6911C20.5405 20.6906 20.8079 20.4592 21.21 20.0955Z" fill="#32ABF2"/>
    <path d="M24.3734 16.5258C24.6399 16.1655 24.8752 15.814 25.0448 15.5471C25.1129 15.4392 25.1703 15.3464 25.2155 15.2705C25.4153 15.323 25.6642 15.4076 25.9365 15.5467C26.5909 15.8811 27.2598 16.0639 27.6575 15.9103C28.0547 15.7562 28.9288 15.3643 29.5497 15.8082C30.1705 16.2521 30.3713 17.065 30.0281 17.6659C29.733 18.1827 28.9682 18.9975 28.1043 19.329C28.1043 19.329 26.1202 20.2785 23.8387 18.2998C21.8731 16.5958 23.5066 16.5068 24.3734 16.5258Z" fill="#32ABF2"/>
    <path d="M12.6897 14.185C13.1547 14.185 13.5317 13.7053 13.5317 13.1135C13.5317 12.5217 13.1547 12.042 12.6897 12.042C12.2247 12.042 11.8477 12.5217 11.8477 13.1135C11.8477 13.7053 12.2247 14.185 12.6897 14.185Z" fill="#34056F"/>
    <path d="M13.026 12.6546C13.026 12.8651 12.8553 13.0357 12.6448 13.0357C12.4343 13.0357 12.2637 12.8651 12.2637 12.6546C12.2637 12.4441 12.4343 12.2734 12.6448 12.2734C12.8553 12.273 13.026 12.4436 13.026 12.6546Z" fill="#F9F9F9"/>
    <path d="M19.2854 14.185C19.7505 14.185 20.1274 13.7053 20.1274 13.1135C20.1274 12.5217 19.7505 12.042 19.2854 12.042C18.8204 12.042 18.4434 12.5217 18.4434 13.1135C18.4434 13.7053 18.8204 14.185 19.2854 14.185Z" fill="#34056F"/>
    <path d="M19.6217 12.6546C19.6217 12.8651 19.451 13.0357 19.2405 13.0357C19.03 13.0357 18.8594 12.8651 18.8594 12.6546C18.8594 12.4441 19.03 12.2734 19.2405 12.2734C19.451 12.273 19.6217 12.4436 19.6217 12.6546Z" fill="#F9F9F9"/>
    <path d="M17.5346 16.4089C17.4544 17.3754 17.1291 18.6069 15.9866 18.6069C15.4227 18.6069 15.0581 18.3069 14.8242 17.8869C15.1081 17.2792 15.8598 16.197 17.5346 16.4089Z" fill="#EB5A55"/>
    <path d="M17.5339 16.4096C15.8585 16.1976 15.1074 17.2798 14.8235 17.8876C14.2741 16.907 14.4365 15.2705 14.4365 15.2705C14.8988 15.4689 15.9859 15.4285 15.9859 15.4285C15.9859 15.4285 17.0715 15.4689 17.5353 15.2705C17.5353 15.2705 17.5864 15.7854 17.5339 16.4096Z" fill="#79292A"/>
</svg>
