<svg width="16" height="17" viewBox="0 0 16 17" fill="none" xmlns="http://www.w3.org/2000/svg">
    <g clip-path="url(#clip0_586_2360)">
        <path d="M6.59935 3.32652C7.05824 3.21911 7.52806 3.16541 7.99935 3.16652C12.666 3.16652 15.3327 8.49985 15.3327 8.49985C14.928 9.25693 14.4454 9.96968 13.8927 10.6265M9.41268 9.91319C9.22958 10.1097 9.00878 10.2673 8.76345 10.3766C8.51812 10.4859 8.25328 10.5447 7.98474 10.5494C7.7162 10.5542 7.44946 10.5048 7.20042 10.4042C6.95139 10.3036 6.72516 10.1539 6.53525 9.96396C6.34533 9.77404 6.19561 9.54782 6.09502 9.29878C5.99443 9.04975 5.94503 8.783 5.94977 8.51446C5.95451 8.24592 6.01329 7.98108 6.1226 7.73575C6.23191 7.49042 6.38952 7.26962 6.58602 7.08652M11.9593 12.4599C10.8197 13.3285 9.43209 13.8098 7.99935 13.8332C3.33268 13.8332 0.666016 8.49985 0.666016 8.49985C1.49528 6.95445 2.64544 5.60426 4.03935 4.53985L11.9593 12.4599Z" stroke="#4F637D" stroke-width="1.33" stroke-linecap="round" stroke-linejoin="round"/>
        <path d="M0.666016 1.1665L15.3327 15.8332" stroke="#4F637D" stroke-width="1.33" stroke-linecap="round" stroke-linejoin="round"/>
    </g>
    <defs>
        <clipPath id="clip0_586_2360">
            <rect width="16" height="16" fill="white" transform="translate(0 0.5)"/>
        </clipPath>
    </defs>
</svg>
